<?xml version="1.0" encoding="UTF-8"?>
<svg id="Layer_1" data-name="Layer 1" xmlns="http://www.w3.org/2000/svg" xmlns:xlink="http://www.w3.org/1999/xlink" viewBox="0 0 618 251">
  <defs>
    <style>
      .cls-1 {
        letter-spacing: -.01em;
      }

      .cls-2 {
        letter-spacing: -.02em;
      }

      .cls-3 {
        letter-spacing: -.02em;
      }

      .cls-4 {
        fill: none;
        filter: url(#outer-glow-5);
        stroke: #fff;
        stroke-miterlimit: 10;
        stroke-width: 8px;
      }

      .cls-5 {
        letter-spacing: 0em;
      }

      .cls-6 {
        filter: url(#outer-glow-7);
        font-size: 18px;
      }

      .cls-6, .cls-7, .cls-8, .cls-9, .cls-10, .cls-11, .cls-12 {
        fill: #fff;
      }

      .cls-6, .cls-11 {
        font-family: 'efra', sans-serif;
        font-weight: 500;
      }

      .cls-13 {
        letter-spacing: .01em;
      }

      .cls-14 {
        letter-spacing: 0em;
      }

      .cls-15 {
        letter-spacing: 0em;
      }

      .cls-16 {
        letter-spacing: 0em;
      }

      .cls-7 {
        filter: url(#outer-glow-3);
      }

      .cls-7, .cls-8, .cls-9, .cls-10, .cls-12 {
        stroke-width: 0px;
      }

      .cls-8 {
        filter: url(#outer-glow-1);
      }

      .cls-9 {
        filter: url(#outer-glow-4);
      }

      .cls-10 {
        filter: url(#outer-glow-2);
      }

      .cls-11 {
        filter: url(#outer-glow-6);
        font-size: 38px;
      }

      .cls-17 {
        letter-spacing: 0em;
      }
    </style>
    <filter id="outer-glow-1" filterUnits="userSpaceOnUse">
      <feOffset dx="0" dy="0"/>
      <feGaussianBlur result="blur" stdDeviation="14"/>
      <feFlood flood-color="#004777" flood-opacity=".85"/>
      <feComposite in2="blur" operator="in"/>
      <feComposite in="SourceGraphic"/>
    </filter>
    <filter id="outer-glow-2" filterUnits="userSpaceOnUse">
      <feOffset dx="0" dy="0"/>
      <feGaussianBlur result="blur-2" stdDeviation="14"/>
      <feFlood flood-color="#004777" flood-opacity=".85"/>
      <feComposite in2="blur-2" operator="in"/>
      <feComposite in="SourceGraphic"/>
    </filter>
    <filter id="outer-glow-3" filterUnits="userSpaceOnUse">
      <feOffset dx="0" dy="0"/>
      <feGaussianBlur result="blur-3" stdDeviation="14"/>
      <feFlood flood-color="#004777" flood-opacity=".85"/>
      <feComposite in2="blur-3" operator="in"/>
      <feComposite in="SourceGraphic"/>
    </filter>
    <filter id="outer-glow-4" filterUnits="userSpaceOnUse">
      <feOffset dx="0" dy="0"/>
      <feGaussianBlur result="blur-4" stdDeviation="14"/>
      <feFlood flood-color="#004777" flood-opacity=".85"/>
      <feComposite in2="blur-4" operator="in"/>
      <feComposite in="SourceGraphic"/>
    </filter>
    <filter id="outer-glow-5" filterUnits="userSpaceOnUse">
      <feOffset dx="0" dy="0"/>
      <feGaussianBlur result="blur-5" stdDeviation="14"/>
      <feFlood flood-color="#004777" flood-opacity=".85"/>
      <feComposite in2="blur-5" operator="in"/>
      <feComposite in="SourceGraphic"/>
    </filter>
    <filter id="outer-glow-6" filterUnits="userSpaceOnUse">
      <feOffset dx="0" dy="0"/>
      <feGaussianBlur result="blur-6" stdDeviation="14"/>
      <feFlood flood-color="#004777" flood-opacity=".85"/>
      <feComposite in2="blur-6" operator="in"/>
      <feComposite in="SourceGraphic"/>
    </filter>
    <filter id="outer-glow-7" filterUnits="userSpaceOnUse">
      <feOffset dx="0" dy="0"/>
      <feGaussianBlur result="blur-7" stdDeviation="14"/>
      <feFlood flood-color="#004777" flood-opacity=".85"/>
      <feComposite in2="blur-7" operator="in"/>
      <feComposite in="SourceGraphic"/>
    </filter>
  </defs>
  <path class="cls-8" d="M321.8,100.64c.21.24.44.46.66.69.63-.64,1.37-1.02,2.14-1.22-.96-5-1.64-10-2.96-14.82-4.61-16.79-17.8-26.88-35.19-26.26-16.89.61-31.1,7.7-42.65,20-2.89,3.07-5.41,6.49-8.1,9.75-3.69-1.58-7.43-3.16-11.14-4.8-.65-.29-1.25-.8-1.72-1.35-1.9-2.2-3.68-4.52-5.62-6.69-12.96-14.56-28.22-25.72-46.99-31.67-1.65-.52-3.33-.94-5-1.4,14.05,10.13,27.74,20.39,37.85,34.59-12.33-9.89-24.02-20.69-39.17-26.88-2.61,8.96-9.13,13.21-17.66,15.73,5.94,5.73,11.64,11.24,17.34,16.75-.1.12-.21.23-.31.35-6.13-3.62-12.26-7.24-18.52-10.95-3.91,6.54-10.13,8.82-17.37,9.6,2.54,3.24,4.81,6.14,7.09,9.05-.09.11-.18.22-.27.33-2.53-1.32-5.06-2.63-7.7-4.01-1.02,2.29-2.02,4.46-2.96,6.66-3.71,8.68-15.76,10.28-21.66,5.74-2.49-1.92-5.31-3.42-8.02-5.03-13.43-7.94-27.37-14.67-42.74-18.02-1.46-.32-2.93-.57-4.41-.81-1.35-.22-2.72-.37-4.08-.56.38.67.82.88,1.27,1.07,11.57,4.92,22.91,10.26,32.94,17.99,7.51,5.78,13.7,12.58,16.88,21.76.72,2.06.51,3.18-1.61,4.27-10.25,5.26-21.18,6.44-32.62,5.88-1.62-5.89-2.88-11.93-6.58-16.9.76,4.56,1.89,9.1,2.19,13.69.3,4.67-.24,9.39-.42,14.27,11.08.87,21.84-1.77,32.57-4.75-7.68,5.66-16.47,8.39-25.06,9.87.35,6.35.69,12.43,1.04,18.73,17.15.26,31.92-5.8,44.41-17.93,1.13.61,2.22,1.18,3.3,1.78,6.47,3.59,12.92,7.21,19.41,10.76.83.45,1.84.8,2.77.8,4.66-.02,9.32-.37,13.96-.2,3.04.11,6.05.9,9.07,1.38-.02.24-.03.49-.05.73-1.69.27-3.42.4-5.06.85-5.74,1.58-11.54,3.01-17.13,5.01-3.44,1.23-4.69,3-5.73,5.48,19.75-9.32,38.68-10.09,56.69,4.75-14.34,3.05-27.75,6.98-37.42,17.79-3.03-.92-5.77-1.76-8.51-2.59-.13.28-.26.55-.38.83,4.42,3.54,8.16,7.58,10.12,13.9,3.61-3.73,6.57-7.26,10.02-10.21,3.25-2.78,6.99-5.02,10.59-7.37,1.19-.78,2.22-.49,3.4.71,4.04,4.07,8.11,8.16,12.57,11.75,8.64,6.96,17.96,10.69,29.72,8.59,22.13-3.93,43.87-9.15,65.18-16.24.98-.32,1.94-.98,2.66-1.72,5.71-5.81,8.66-12.89,9.39-20.94.93-10.23-1.21-20.01-4.48-29.61-.4-1.17-.85-2.32-1.28-3.48-1.06,9.64-1.74,19.11-7.65,27.27-.35-3.4-.09-6.79-.42-10.13-.32-3.24-1.24-6.41-1.9-9.62-.28.03-.55.05-.83.08-1.89,8.21-4.07,16.28-10.52,22.88-.6-5.86-.08-11.61-3.84-16.8-1.69,7.64-4.23,14.32-10.52,19.31.66-8.4.64-8.54-1.35-10.31-1.48,5.28-4.63,9.38-8.85,13.01-1.11-1.93-2.05-3.58-3.09-5.4-.83.89-1.73,1.57-2.27,2.47-2.33,3.93-5.82,4.48-10.01,4.12-10.64-.9-21.82-11.6-22.64-21.95,6.91,2.38,8.88,2.46,16.57,1.07.86-.15,2.07.12,2.73.67,2.72,2.24,5.29,4.67,8.24,7.32,1.3-3,2.62-6.05,4.18-9.64,2.41,3.03,4.65,5.84,7.39,9.29,1.29-5.18,2.5-9.99,3.71-14.85,3.77,1.81,6.36,5.16,8.52,8.94.27-.04.54-.07.81-.11.67-5.01,1.33-10.02,2-15.05,5.63,3.37,8.64,8.83,11.14,15.02,2.37-5.6,3.9-10.96,3.97-16.58.04-3.38-.27-6.63,5.05-6.85-2.75-4.69-4.98-8.96-7.65-12.93-6.53-9.74-15.1-17.41-25.18-23.74,8.4-10.94,17.89-20.16,30.78-25.27,6.87-2.73,13.92-3.78,21.24-2.11,15.47,3.52,23.42,19.03,24.54,33.08.38.46.76.91,1.16,1.34ZM261.78,122.74c.5.85.92,1.75,1.53,2.93-14.66,4.44-27.99,11.39-41.22,19.87.47-2.3.83-4.03,1.28-6.2-1.63.96-2.86,1.97-4.26,2.44-3.1,1.05-6.27,2.42-9.46,2.57-5.64.26-8.56-2.64-9.36-8.22-.24-1.64-.36-3.3-.43-4.96-.07-1.63-.02-3.26-.02-5.3-4.54,3.26-7.02,7.41-8.01,12.45-1.7,8.64.51,16.82,3.12,24.94.27.84.64,1.64,1.18,3.03.25-3.64.46-6.66.66-9.7,2.2,3.5,4.14,7.07,6.54,10.28,2.4,3.21,5.27,6.07,7.94,9.08-.07.25-.14.49-.21.74-2.67-.48-5.34-.97-8.01-1.45-.11.1-.23.21-.34.31,1.96,1.32,3.79,2.9,5.89,3.9,5.87,2.78,12.19,2.95,18.55,2.81,9.47-.21,18.48-3.12,27.75-4.5,9.27-1.38,18.62-2.22,27.94-3.29.2.31.41.61.61.92-1.25,1.94-2.34,4.02-3.79,5.8-3.64,4.43-8.53,7.16-13.82,9.05-4.06,1.44-8.23,2.62-12.43,3.58-4.11.94-8.32,1.46-12.6,1.69,8.09-2.85,16.18-5.7,24.27-8.55-12.23.21-24.1,2.03-35.91,5-10.7,2.7-21.22,1.72-29.98-6.13-4.79-4.29-7.23-10.08-9.4-15.95-4.07-10.98-6.04-22.44-7.45-33.99-1.01-8.25-1.76-16.52-2.78-24.8-4.4,14.76-3.77,29.95-3.98,45.13-4.32-11.11-4.38-22.82-4.83-34.64-25.62-2.67-50.89-1.11-76.38,3.9.55-.59.79-.96,1.14-1.21,21.36-15.34,44.5-26.82,70.44-32.07,20.91-4.23,41.67-4.17,61.93,3.33,14.28,5.29,26.1,13.81,33.93,27.22Z"/>
  <path class="cls-12" d="M88.23,113.71c-6.82,2.65-13.54,5.26-20.62,8.01-5.52-14.5-12.54-27.5-24.97-35.9,9.21-.07,37.15,17.9,45.59,27.89Z"/>
  <path class="cls-12" d="M158.93,168.81c-8.06-.82-16.18,0-24.54,2.73,5.84,4.28,11.12,8.47,13.61,15.69,4.17-4.99,8.99-7.94,14.2-9.82-1.07-2.88-2.15-5.75-3.28-8.6Z"/>
  <path class="cls-10" d="M175.56,156.2c-4.32-11.11-4.38-22.82-4.83-34.64-25.62-2.67-50.89-1.11-76.38,3.9.55-.59.79-.96,1.14-1.21,21.36-15.34,44.5-26.82,70.44-32.07,20.91-4.23,41.67-4.17,61.93,3.33,14.28,5.29,26.1,13.81,33.93,27.22.5.85.92,1.75,1.53,2.93-14.66,4.44-27.99,11.39-41.22,19.87.47-2.3.83-4.03,1.28-6.2-1.63.96-2.86,1.97-4.26,2.44-3.1,1.05-6.27,2.42-9.46,2.57-5.64.26-8.56-2.64-9.36-8.22-.24-1.64-.36-3.3-.43-4.96-.07-1.63-.02-3.26-.02-5.3-4.54,3.26-7.02,7.41-8.01,12.45-1.7,8.64.51,16.82,3.12,24.94.27.84.64,1.64,1.18,3.03.25-3.64.46-6.66.66-9.7,2.2,3.5,4.14,7.07,6.54,10.28,2.4,3.21,5.27,6.07,7.94,9.08l-.21.74c-2.67-.48-5.34-.97-8.01-1.45l-.34.31c1.96,1.32,3.79,2.9,5.89,3.9,5.87,2.78,12.19,2.95,18.55,2.81,9.47-.21,18.48-3.12,27.75-4.5,9.27-1.38,18.62-2.22,27.94-3.29.2.31.41.61.61.92-1.25,1.94-2.34,4.02-3.79,5.8-3.64,4.43-8.53,7.16-13.82,9.05-4.06,1.44-8.23,2.62-12.43,3.58-4.11.94-8.32,1.46-12.6,1.69,8.09-2.85,16.18-5.7,24.27-8.55-12.23.21-24.1,2.03-35.91,5-10.7,2.7-21.22,1.72-29.98-6.13-4.79-4.29-7.23-10.08-9.4-15.95-4.07-10.98-6.04-22.44-7.45-33.99-1.01-8.25-1.76-16.52-2.78-24.8-4.4,14.76-3.77,29.95-3.98,45.13ZM208.45,116.08c2.49,4.98,5.36,8.69,8.86,11.89,2.45,2.24,5.85,3.65,6.41,7.55.77-1.62,1.53-3.25,2.3-4.88,7.94,1.5,14.55-.4,20-6.56q-3.86-.42-3.6-3.95c.04-.58.03-1.16.03-1.75.02-7.22-3.82-12.25-10.87-14.25-5.21-1.48-12.17,1.67-15.04,7.34-1.68,3.32-2.89,6.56-8.11,4.6ZM173.78,106.97c-21.43.77-42.49,2.2-62.33,10.72,19.83-2.23,39.65-4.01,59.47-1.3.34-1.86.48-3.44.94-4.93.45-1.48,1.21-2.86,1.92-4.5ZM253.53,117.71c-.72,1.5-1.57,2.78-1.91,4.19-.2.81.43,1.82.69,2.74.91-.31,2.14-.34,2.67-.97,1.49-1.75.87-3.89-1.46-5.95Z"/>
  <path class="cls-7" d="M231.56,102.73c-6.92-1.87-16.16,2.11-19.97,9.27-2.23,4.2-3.84,8.29-10.77,5.81,3.31,6.29,7.12,10.97,11.76,15.01.19.17.39.33.59.49,3.34,1.42,6.7,2.58,10.36,2.66.38,0,.72.06,1.05.13.37-.08.77-.13,1.2-.13.68,0,1.28.12,1.81.31,3.7-.06,7.53-.37,10.86-2,4.53-2.21,6.34-6.65,7.41-11.32.02-.1.05-.19.08-.28.04-.65.04-1.31.04-1.97.02-9.12-5.07-15.47-14.43-17.99ZM228.55,129.96c-5.61,0-10.15-4.42-10.14-9.88,0-5.3,4.45-9.65,9.96-9.73,5.55-.08,10.39,4.41,10.46,9.72.07,5.26-4.74,9.9-10.28,9.9Z"/>
  <path class="cls-9" d="M236,116.55c-4.68-1.13-7.42.09-7.94,3.32-.5,3.12,1.75,5.07,6.57,5.5-2.61,2.86-5.55,3.32-8.83,2.04-3.63-1.41-5.03-4.3-4.82-8.02.2-3.65,2.19-6.06,5.67-7.04,3.88-1.09,6.71.2,9.34,4.2Z"/>
  <circle class="cls-4" cx="360.18" cy="135.52" r="54.42"/>
  <text class="cls-11" transform="translate(422.19 156.8)"><tspan class="cls-15" x="0" y="0">n</tspan><tspan class="cls-17" x="26.59" y="0">lyFi</tspan><tspan class="cls-5" x="102.58" y="0">n</tspan><tspan class="cls-15" x="129.26" y="0">s</tspan></text>
  <text class="cls-6" transform="translate(422.28 177.87)"><tspan class="cls-1" x="0" y="0">P</tspan><tspan class="cls-16" x="9.22" y="0">ow</tspan><tspan x="29.41" y="0">e</tspan><tspan class="cls-13" x="37.82" y="0">r</tspan><tspan class="cls-1" x="43.92" y="0">wa</tspan><tspan class="cls-16" x="63.62" y="0">s</tspan><tspan class="cls-14" x="71.55" y="0">hing, L</tspan><tspan class="cls-3" x="119.57" y="0">L</tspan><tspan class="cls-2" x="126.98" y="0">C</tspan></text>
</svg>