<?xml version="1.0" encoding="UTF-8"?>
<svg id="Layer_1" data-name="Layer 1" xmlns="http://www.w3.org/2000/svg" xmlns:xlink="http://www.w3.org/1999/xlink" viewBox="0 0 460.32 250.08">
  <defs>
    <style>
      .cls-1 {
        fill: none;
        filter: url(#outer-glow-5);
        stroke: #fff;
        stroke-miterlimit: 10;
        stroke-width: 8px;
      }

      .cls-2 {
        filter: url(#outer-glow-3);
      }

      .cls-2, .cls-3, .cls-4, .cls-5, .cls-6 {
        fill: #fff;
        stroke-width: 0px;
      }

      .cls-3 {
        filter: url(#outer-glow-1);
      }

      .cls-4 {
        filter: url(#outer-glow-4);
      }

      .cls-5 {
        filter: url(#outer-glow-2);
      }
    </style>
    <filter id="outer-glow-1" filterUnits="userSpaceOnUse">
      <feOffset dx="0" dy="0"/>
      <feGaussianBlur result="blur" stdDeviation="14"/>
      <feFlood flood-color="#0d4877" flood-opacity=".85"/>
      <feComposite in2="blur" operator="in"/>
      <feComposite in="SourceGraphic"/>
    </filter>
    <filter id="outer-glow-2" filterUnits="userSpaceOnUse">
      <feOffset dx="0" dy="0"/>
      <feGaussianBlur result="blur-2" stdDeviation="14"/>
      <feFlood flood-color="#0d4877" flood-opacity=".85"/>
      <feComposite in2="blur-2" operator="in"/>
      <feComposite in="SourceGraphic"/>
    </filter>
    <filter id="outer-glow-3" filterUnits="userSpaceOnUse">
      <feOffset dx="0" dy="0"/>
      <feGaussianBlur result="blur-3" stdDeviation="14"/>
      <feFlood flood-color="#0d4877" flood-opacity=".85"/>
      <feComposite in2="blur-3" operator="in"/>
      <feComposite in="SourceGraphic"/>
    </filter>
    <filter id="outer-glow-4" filterUnits="userSpaceOnUse">
      <feOffset dx="0" dy="0"/>
      <feGaussianBlur result="blur-4" stdDeviation="14"/>
      <feFlood flood-color="#0d4877" flood-opacity=".85"/>
      <feComposite in2="blur-4" operator="in"/>
      <feComposite in="SourceGraphic"/>
    </filter>
    <filter id="outer-glow-5" filterUnits="userSpaceOnUse">
      <feOffset dx="0" dy="0"/>
      <feGaussianBlur result="blur-5" stdDeviation="14"/>
      <feFlood flood-color="#0d4877" flood-opacity=".85"/>
      <feComposite in2="blur-5" operator="in"/>
      <feComposite in="SourceGraphic"/>
    </filter>
  </defs>
  <path class="cls-3" d="M321.2862,99.8734c.2147.2362.4399.4626.6591.6946.6281-.6412,1.3676-1.0234,2.1407-1.2178-.963-5.0013-1.637-10.0023-2.9622-14.8237-4.6135-16.7858-17.7978-26.8814-35.1856-26.2584-16.8896.6051-31.1016,7.7029-42.6503,20.0011-2.886,3.0733-5.4089,6.4876-8.0986,9.7451-3.6934-1.5826-7.4319-3.1552-11.1381-4.8002-.6489-.288-1.2533-.8027-1.7227-1.3468-1.9016-2.2048-3.681-4.5167-5.6158-6.6909-12.9577-14.5622-28.2192-25.7243-46.9872-31.6678-1.6484-.5221-3.3314-.9355-4.9982-1.3994,14.0485,10.1255,27.7352,20.3859,37.8505,34.5934-12.3326-9.8925-24.0217-20.6877-39.1685-26.8835-2.605,8.9593-9.1279,13.2138-17.665,15.7253,5.9364,5.7326,11.6385,11.2391,17.3408,16.7456-.1033.1155-.2067.231-.3101.3464-6.1292-3.6219-12.2584-7.244-18.525-10.9471-3.9067,6.542-10.1281,8.8165-17.3745,9.5992,2.5352,3.238,4.8106,6.1442,7.086,9.0504-.0891.1089-.1782.2179-.2673.3268-2.5309-1.3175-5.0619-2.6349-7.6996-4.0081-1.0198,2.2875-2.022,4.4615-2.9639,6.6614-3.7144,8.6752-15.7599,10.2798-21.6596,5.7357-2.4898-1.9178-5.3054-3.4243-8.0237-5.0316-13.4285-7.9401-27.371-14.6738-42.7372-18.0189-1.4589-.3176-2.9324-.5746-4.4067-.8124-1.3538-.2184-2.718-.3727-4.0776-.5553.3754.6682.8177.8801,1.2686,1.0717,11.5698,4.9157,22.9073,10.265,32.9393,17.9875,7.5073,5.7791,13.6954,12.5817,16.8762,21.7557.715,2.0623.5134,3.183-1.613,4.2749-10.2523,5.2644-21.1816,6.4397-32.6165,5.8777-1.6221-5.8926-2.8761-11.9265-6.5762-16.8958.7624,4.5582,1.8948,9.0973,2.1857,13.6898.2957,4.6687-.238,9.3899-.415,14.2696,11.0821.8721,21.8445-1.7713,32.5719-4.7519-7.6776,5.6603-16.4702,8.3907-25.0555,9.8738.3538,6.3547.6923,12.4319,1.043,18.7305,17.1509.2633,31.9249-5.7997,44.4104-17.9294,1.1301.6102,2.2193,1.1843,3.2954,1.7819,6.4673,3.5915,12.9208,7.2084,19.4108,10.7585.8285.4532,1.8434.802,2.7705.7985,4.6556-.0176,9.3179-.3679,13.9636-.2017,3.036.1086,6.0477.8983,9.0703,1.3829-.0164.2433-.0327.4866-.0491.7298-1.6888.2731-3.4189.3959-5.059.8464-5.7375,1.576-11.5369,3.0054-17.1279,5.007-3.4449,1.2333-4.6909,2.9956-5.7255,5.4843,19.7518-9.3189,38.6802-10.0903,56.6936,4.7518-14.3363,3.0465-27.7502,6.9792-37.4219,17.7867-3.0345-.925-5.773-1.7597-8.5114-2.5945-.1279.2764-.2558.5528-.3837.8292,4.4156,3.5383,8.1552,7.5783,10.1152,13.8982,3.6135-3.7322,6.5699-7.2596,10.019-10.2114,3.2518-2.783,6.9854-5.0163,10.5858-7.3708,1.1873-.7764,2.2164-.4877,3.4044.7071,4.0422,4.0657,8.11,8.1597,12.5655,11.7495,8.6365,6.9586,17.9552,10.6863,29.7227,8.5947,22.1311-3.9337,43.8736-9.1451,65.1812-16.2375.9755-.3247,1.937-.9805,2.6632-1.7197,5.7081-5.8099,8.6626-12.8916,9.3942-20.9396.9301-10.2306-1.2131-20.0065-4.481-29.6058-.3981-1.1694-.8492-2.3209-1.2758-3.4806-1.0645,9.6404-1.7369,19.1122-7.6488,27.2662-.3453-3.3994-.0894-6.7932-.4185-10.1293-.3193-3.2361-1.2395-6.4128-1.8958-9.6157-.2773.0267-.5546.0534-.832.0801-1.8857,8.211-4.0672,16.2835-10.525,22.8782-.5975-5.862-.0806-11.6137-3.8386-16.8005-1.6881,7.644-4.2324,14.3233-10.5158,19.3129.6574-8.3985.637-8.5438-1.3542-10.3105-1.4788,5.2806-4.6342,9.3801-8.8489,13.0079-1.1058-1.9341-2.0497-3.5847-3.0878-5.4004-.8287.8853-1.7342,1.5689-2.2682,2.4721-2.3255,3.9336-5.8224,4.4756-10.0124,4.1201-10.6422-.9031-21.8219-11.5969-22.6414-21.9504,6.9147,2.3758,8.8817,2.4612,16.5687,1.0732.8574-.1548,2.068.1213,2.728.6662,2.7188,2.2443,5.2883,4.6694,8.2405,7.3228,1.3012-3.0005,2.624-6.0506,4.181-9.6409,2.4122,3.0301,4.6514,5.8428,7.3942,9.2883,1.2948-5.1813,2.4974-9.9937,3.7119-14.8538,3.7745,1.8059,6.357,5.1598,8.5227,8.942.2708-.0353.5415-.0706.8123-.1059.6656-5.0121,1.3311-10.0244,1.9982-15.0481,5.6279,3.3682,8.637,8.8278,11.1442,15.022,2.3696-5.602,3.9031-10.9568,3.968-16.5803.0389-3.3822-.2675-6.6322,5.0544-6.8465-2.7543-4.6908-4.9814-8.9553-7.645-12.9271-6.5306-9.7379-15.1027-17.4092-25.1838-23.7397,8.3954-10.9391,17.8895-20.1586,30.7775-25.2711,6.8741-2.7269,13.9199-3.7807,21.2368-2.1141,15.4703,3.5237,23.4219,19.0258,24.5406,33.076.3776.4554.7604.9059,1.1586,1.3439ZM261.2655,121.9737c.4982.8528.9165,1.7523,1.5262,2.9272-14.6641,4.4385-27.9901,11.3922-41.2175,19.8652.4733-2.2976.8311-4.0344,1.277-6.199-1.6329.9587-2.8577,1.9701-4.2637,2.4437-3.1039,1.0456-6.2711,2.4247-9.4631,2.5725-5.6404.261-8.5562-2.6381-9.3604-8.2182-.2365-1.6412-.3571-3.3047-.4301-4.9624-.0718-1.6296-.0157-3.2648-.0157-5.3045-4.5441,3.2568-7.0166,7.406-8.0087,12.4477-1.7,8.6391.513,16.8222,3.121,24.9381.2685.8356.6354,1.6395,1.1819,3.0324.249-3.6429.4551-6.6575.6634-9.705,2.2009,3.504,4.1381,7.0685,6.5436,10.2823,2.4029,3.2104,5.2746,6.0698,7.9409,9.0831-.07.2451-.14.4902-.21.7353-2.6716-.4845-5.3432-.9689-8.0147-1.4534-.1136.1048-.2272.2095-.3409.3143,1.9569,1.3176,3.7866,2.9042,5.895,3.9012,5.8684,2.7751,12.1902,2.9486,18.5498,2.806,9.4686-.2122,18.4843-3.1236,27.749-4.5023,9.2703-1.3796,18.6213-2.2174,27.937-3.2927.2037.3071.4073.6143.611.9214-1.2537,1.9421-2.3363,4.0248-3.7947,5.7985-3.6436,4.4315-8.5256,7.1625-13.8248,9.0457-4.0565,1.4415-8.2311,2.6156-12.4293,3.5752-4.1093.9391-8.315,1.4564-12.6041,1.6923,8.0887-2.8503,16.1773-5.7007,24.266-8.551-12.2278.212-24.1022,2.0252-35.9103,5.0037-10.6996,2.6989-21.2181,1.7192-29.9844-6.1298-4.7936-4.292-7.2301-10.0773-9.4037-15.9473-4.0652-10.9785-6.0378-22.436-7.4507-33.9929-1.008-8.2457-1.7553-16.5231-2.7769-24.7992-4.3964,14.7573-3.7728,29.9548-3.9814,45.1337-4.3217-11.1064-4.3787-22.8245-4.8279-34.64-25.6194-2.6736-50.89-1.1129-76.3846,3.9041.5454-.5873.7939-.9621,1.1354-1.2073,21.3643-15.3377,44.5046-26.8192,70.4417-32.071,20.9072-4.2335,41.6652-4.1705,61.9276,3.3315,14.28,5.2871,26.0995,13.814,33.931,27.2208Z"/>
  <path class="cls-6" d="M87.7165,112.9454c-6.8244,2.6495-13.5387,5.2562-20.6211,8.0058-5.517-14.5011-12.5431-27.4996-24.9693-35.8952,9.2087-.0717,37.1464,17.9022,45.5905,27.8894Z"/>
  <path class="cls-6" d="M158.4127,168.0438c-8.0624-.8194-16.178-.0058-24.5364,2.7324,5.8445,4.2773,11.122,8.4659,13.6141,15.6859,4.1723-4.9916,8.986-7.941,14.203-9.8171-1.0697-2.8774-2.1485-5.7512-3.2808-8.6012Z"/>
  <path class="cls-5" d="M175.0423,155.4356c-4.3217-11.1064-4.3787-22.8245-4.8279-34.64-25.6194-2.6736-50.89-1.1128-76.3846,3.9041.5454-.5873.7939-.9621,1.1354-1.2072,21.3642-15.3377,44.5046-26.8192,70.4417-32.0711,20.9071-4.2334,41.6652-4.1705,61.9276,3.3316,14.28,5.2871,26.0995,13.814,33.9311,27.2208.4982.8528.9165,1.7522,1.5262,2.9272-14.6641,4.4386-27.9901,11.3922-41.2175,19.8652.4733-2.2976.8311-4.0344,1.277-6.1991-1.6328.9587-2.8577,1.9701-4.2636,2.4437-3.1039,1.0456-6.2711,2.4247-9.4631,2.5725-5.6404.2611-8.5562-2.6381-9.3603-8.2182-.2365-1.6412-.3571-3.3047-.4301-4.9625-.0718-1.6296-.0157-3.2648-.0157-5.3045-4.5442,3.2568-7.0166,7.406-8.0087,12.4477-1.7,8.6391.513,16.8222,3.121,24.9381.2685.8355.6354,1.6395,1.1819,3.0324.249-3.643.4551-6.6575.6634-9.705,2.2009,3.504,4.138,7.0685,6.5436,10.2824,2.4029,3.2104,5.2746,6.0698,7.9409,9.083l-.21.7353c-2.6716-.4845-5.3432-.969-8.0147-1.4534l-.3408.3143c1.9569,1.3176,3.7865,2.9042,5.895,3.9013,5.8684,2.7752,12.1902,2.9486,18.5498,2.806,9.4686-.2123,18.4843-3.1236,27.749-4.5023,9.2703-1.3796,18.6213-2.2174,27.937-3.2927.2037.3071.4073.6143.611.9214-1.2537,1.9421-2.3363,4.0248-3.7947,5.7986-3.6436,4.4315-8.5255,7.1625-13.8248,9.0457-4.0565,1.4415-8.231,2.6156-12.4293,3.5752-4.1093.9392-8.315,1.4564-12.6041,1.6923,8.0887-2.8503,16.1773-5.7006,24.266-8.551-12.2279.212-24.1022,2.0252-35.9104,5.0037-10.6996,2.6988-21.2181,1.7192-29.9844-6.1298-4.7936-4.292-7.2301-10.0773-9.4037-15.9474-4.0652-10.9784-6.0378-22.436-7.4507-33.9929-1.008-8.2456-1.7553-16.5231-2.7769-24.7992-4.3963,14.7573-3.7728,29.9547-3.9814,45.1337ZM207.9308,115.3132c2.4908,4.981,5.357,8.6912,8.8577,11.8898,2.4547,2.2428,5.8472,3.6459,6.4134,7.549.767-1.6244,1.534-3.2489,2.3045-4.8809,7.9417,1.4989,14.5483-.3958,20.0039-6.5566q-3.864-.4168-3.6029-3.9502c.0421-.58.0335-1.1643.0347-1.7467.0152-7.2222-3.8203-12.2509-10.866-14.2508-5.2071-1.4781-12.1695,1.6689-15.0374,7.3424-1.68,3.3236-2.8874,6.5636-8.1079,4.604ZM173.2694,106.2038c-21.4284.7704-42.4892,2.199-62.3346,10.7239,19.8309-2.233,39.6484-4.007,59.4747-1.3024.3374-1.8562.4828-3.4381.9356-4.9265.4486-1.4752,1.207-2.8562,1.9243-4.495ZM253.0121,116.9388c-.7157,1.4987-1.5671,2.7824-1.9089,4.1898-.1963.8081.4339,1.817.692,2.7355.9114-.3064,2.1379-.3436,2.674-.9708,1.4925-1.7464.8656-3.892-1.457-5.9545Z"/>
  <path class="cls-2" d="M231.048,101.9628c-6.9161-1.866-16.1635,2.1071-19.9727,9.2698-2.2314,4.1959-3.835,8.2864-10.7689,5.8125,3.3083,6.2885,7.1152,10.9725,11.7648,15.0107.1921.1667.394.3252.5936.4856,3.3397,1.4232,6.6958,2.5847,10.3565,2.6606.3765.0078.7235.0591,1.055.1316.3732-.0837.7729-.1316,1.2039-.1316.6777,0,1.2797.116,1.8146.3137,3.6971-.0598,7.5339-.3749,10.8648-1.9974,4.5316-2.2074,6.3382-6.6515,7.405-11.316.0224-.0979.0526-.1871.0789-.2808.0378-.6542.0353-1.3113.0367-1.9672.0201-9.1179-5.0741-15.4666-14.4322-17.9916ZM228.0382,129.1947c-5.6127.0012-10.1465-4.417-10.1403-9.882.006-5.3025,4.4543-9.651,9.9551-9.7317,5.5541-.0814,10.3887,4.4078,10.4639,9.7167.0745,5.2621-4.7376,9.8955-10.2786,9.897Z"/>
  <path class="cls-4" d="M235.4885,115.781c-4.6817-1.1259-7.4241.0915-7.9395,3.3165-.4979,3.1152,1.7462,5.0698,6.5742,5.4971-2.6054,2.8612-5.5456,3.3176-8.8284,2.041-3.6315-1.4123-5.0291-4.3041-4.8218-8.0179.2036-3.6466,2.1902-6.0585,5.6711-7.038,3.8776-1.091,6.7138.2025,9.3445,4.2013Z"/>
  <circle class="cls-1" cx="359.6639" cy="134.752" r="54.4248"/>
</svg>